<svg width="60" height="80" viewBox="0 0 118 141" fill="none" xmlns="http://www.w3.org/2000/svg">
<path d="M40.9241 2.67763L40.9006 2.68115C38.7093 3.00928 35.04 3.88866 32.7905 4.69017M32.7905 4.69017C32.7878 4.69115 32.785 4.69212 32.7823 4.6931L33.6224 7.04773L32.7923 4.68954C32.7917 4.68976 32.7911 4.68996 32.7905 4.69017ZM32.7905 4.69017C31.6955 5.07578 30.0435 5.7868 28.6972 6.41223C28.0171 6.72818 27.3733 7.04163 26.884 7.30103C26.6474 7.42644 26.3997 7.56403 26.1907 7.69807C26.0959 7.75883 25.9357 7.8651 25.7734 8.00423C25.6974 8.06934 25.5447 8.2057 25.3904 8.40408L25.3874 8.4079C25.2958 8.52548 24.8512 9.09644 24.8512 9.96574C24.8512 10.4044 24.9696 10.833 25.0089 10.9753L25.0135 10.9921C25.0781 11.2278 25.1627 11.495 25.2539 11.7671C25.4383 12.3167 25.6849 12.9889 25.9488 13.6738C26.4667 15.0178 27.1114 16.5675 27.5515 17.4398L27.5588 17.4544L27.5664 17.4688C30.2714 22.6607 34.0589 26.4579 38.5944 28.6219C40.204 28.9845 41.7995 29.5244 43.2591 30.2097M43.2591 30.2097C45.1199 30.6101 47.0696 30.7724 49.091 30.6841C48.15 31.173 47.2197 31.7141 46.5534 32.2064C45.5964 31.4523 44.4748 30.7806 43.2591 30.2097Z" stroke="#006F52" stroke-opacity="0.37" stroke-width="5"/>
<path d="M40.9241 2.67763L40.9006 2.68115C38.7093 3.00928 35.04 3.88866 32.7905 4.69017M32.7905 4.69017C32.7878 4.69115 32.785 4.69212 32.7823 4.6931L33.6224 7.04773L32.7923 4.68954C32.7917 4.68976 32.7911 4.68996 32.7905 4.69017ZM32.7905 4.69017C31.6955 5.07578 30.0435 5.7868 28.6972 6.41223C28.0171 6.72818 27.3733 7.04163 26.884 7.30103C26.6474 7.42644 26.3997 7.56403 26.1907 7.69807C26.0959 7.75883 25.9357 7.8651 25.7734 8.00423C25.6974 8.06934 25.5447 8.2057 25.3904 8.40408L25.3874 8.4079C25.2958 8.52548 24.8512 9.09644 24.8512 9.96574C24.8512 10.4044 24.9696 10.833 25.0089 10.9753L25.0135 10.9921C25.0781 11.2278 25.1627 11.495 25.2539 11.7671C25.4383 12.3167 25.6849 12.9889 25.9488 13.6738C26.4667 15.0178 27.1114 16.5675 27.5515 17.4398L27.5588 17.4544L27.5664 17.4688C30.2714 22.6607 34.0589 26.4579 38.5944 28.6219C40.204 28.9845 41.7995 29.5244 43.2591 30.2097M43.2591 30.2097C45.1199 30.6101 47.0696 30.7724 49.091 30.6841C48.15 31.173 47.2197 31.7141 46.5534 32.2064C45.5964 31.4523 44.4748 30.7806 43.2591 30.2097Z" stroke="black" stroke-width="5"/>
</svg>
